<svg width="79" height="79" viewBox="0 0 79 79" fill="none" xmlns="http://www.w3.org/2000/svg">
<rect width="79" height="79" rx="8" fill="#00856E"/>
<path d="M18.6667 21.6666H18.7004" stroke="#E6E6E6" stroke-width="2" stroke-linecap="round" stroke-linejoin="round"/>
<path d="M18.6667 35.3333C26.2146 35.3333 32.3333 29.2146 32.3333 21.6667C32.3333 14.1188 26.2146 8 18.6667 8C11.1188 8 5 14.1188 5 21.6667C5 29.2146 11.1188 35.3333 18.6667 35.3333Z" stroke="#E6E6E6" stroke-width="2" stroke-linecap="round" stroke-linejoin="round"/>
<path d="M47.3667 15.8583C41.9811 14.5269 36.3523 14.5269 30.9667 15.8583" stroke="#E6E6E6" stroke-width="2" stroke-linecap="round" stroke-linejoin="round"/>
<path d="M59.6667 35.3333C67.2146 35.3333 73.3333 29.2146 73.3333 21.6667C73.3333 14.1188 67.2146 8 59.6667 8C52.1188 8 46 14.1188 46 21.6667C46 29.2146 52.1188 35.3333 59.6667 35.3333Z" stroke="#E6E6E6" stroke-width="2" stroke-linecap="round" stroke-linejoin="round"/>
<path d="M73.3333 43.875C73.3333 52.4166 57.9583 59.25 39.1667 59.25C20.375 59.25 5 52.4166 5 43.875M32.3333 45.5833H32.3675M46 45.5833H46.0342M72.1667 21.6666L60.1667 13.75L47.1667 21.6666L60.1667 29.75L72.1667 21.6666Z" stroke="#E6E6E6" stroke-width="2" stroke-linecap="round" stroke-linejoin="round"/>
<path d="M8.75833 31.0625C6.31461 34.8899 5.01102 39.334 5 43.875C5 59.9333 20.375 72.9167 39.1667 72.9167C57.9583 72.9167 73.3333 59.9333 73.3333 43.875C73.3223 39.334 72.0187 34.8899 69.575 31.0625" stroke="#E6E6E6" stroke-width="2" stroke-linecap="round" stroke-linejoin="round"/>
</svg>
