<svg width="18" height="18" viewBox="0 0 18 18" fill="none" xmlns="http://www.w3.org/2000/svg">
<path d="M1 6.33333V15.5778C1 16.0756 1 16.3244 1.09689 16.5147C1.18211 16.6819 1.31809 16.8179 1.48533 16.9031C1.67556 17 1.92444 17 2.42044 17H11.6667M10.7778 9.88889V7.22222M10.7778 7.22222V4.55556M10.7778 7.22222H8.11111M10.7778 7.22222H13.4444M4.55556 10.6V3.84444C4.55556 2.84889 4.55556 2.35111 4.74933 1.97067C4.92 1.63556 5.19111 1.36444 5.52622 1.19378C5.90667 1 6.40444 1 7.4 1H14.1556C15.1511 1 15.6489 1 16.0293 1.19378C16.3638 1.36422 16.6358 1.63617 16.8062 1.97067C17 2.35111 17 2.84889 17 3.84444V10.6C17 11.5956 17 12.0933 16.8062 12.4738C16.6358 12.8083 16.3638 13.0802 16.0293 13.2507C15.6489 13.4444 15.1529 13.4444 14.1591 13.4444H7.39733C6.40356 13.4444 5.90578 13.4444 5.52622 13.2507C5.19173 13.0802 4.91977 12.8083 4.74933 12.4738C4.55556 12.0933 4.55556 11.5956 4.55556 10.6Z" stroke="#0B362F" strokeWidth="1.5" strokeLinecap="round" strokeLinejoin="round"/>
</svg>
