<svg width="20" height="20" viewBox="0 0 20 20" fill="none" xmlns="http://www.w3.org/2000/svg">
<path d="M7.533 9.15611C7.36388 9.32524 7.22976 9.52606 7.13831 9.74706C7.04685 9.96806 6.99985 10.2049 7 10.4441V13.0061H9.578C10.061 13.0061 10.525 12.8141 10.867 12.4721L18.467 4.86811C18.6365 4.69905 18.7709 4.49822 18.8627 4.27712C18.9544 4.05601 19.0016 3.81899 19.0016 3.57961C19.0016 3.34023 18.9544 3.1032 18.8627 2.8821C18.7709 2.661 18.6365 2.46017 18.467 2.29111L17.716 1.54011C17.5469 1.37049 17.346 1.2359 17.1248 1.14407C16.9036 1.05224 16.6665 1.00497 16.427 1.00497C16.1875 1.00497 15.9504 1.05224 15.7292 1.14407C15.508 1.2359 15.3071 1.37049 15.138 1.54011L7.533 9.15611Z" stroke="#0B3619" strokeWidth="1.5" strokeLinecap="round" strokeLinejoin="round"/>
<path d="M19 10.0061C19 14.2491 19 16.3701 17.682 17.6881C16.364 19.0061 14.242 19.0061 10 19.0061C5.758 19.0061 3.636 19.0061 2.318 17.6881C1 16.3701 1 14.2481 1 10.0061C1 5.7641 1 3.6421 2.318 2.3241C3.636 1.0061 5.758 1.0061 10 1.0061" stroke="#0B3619" strokeWidth="1.5" strokeLinecap="round" strokeLinejoin="round"/>
</svg>
