<svg width="15" height="15" viewBox="0 0 15 15" fill="none" xmlns="http://www.w3.org/2000/svg">
<path d="M5.65963 12.1116V8.92827C5.65963 8.47815 5.65963 8.25228 5.61254 8.03453C5.56998 7.84227 5.50073 7.65514 5.40628 7.47716C5.29891 7.27648 5.14822 7.09204 4.84589 6.7248L1.78777 3.00441C1.2547 2.35686 0.98816 2.03267 1.0004 1.76212C1.00597 1.64608 1.04089 1.5325 1.10271 1.42934C1.16454 1.32618 1.25177 1.23594 1.3583 1.16494C1.60694 1 2.0675 1 2.98861 1H12.0123C12.9334 1 13.3939 1 13.6416 1.16494C13.7486 1.23555 13.8362 1.32571 13.8981 1.42895C13.96 1.5322 13.9946 1.64597 13.9995 1.76212C14.0127 2.03267 13.7452 2.35686 13.2131 3.00522L10.155 6.7248C9.8536 7.09204 9.70197 7.27648 9.5946 7.47716C9.49976 7.65536 9.43019 7.84277 9.3874 8.03534C9.3403 8.25228 9.34031 8.47734 9.34031 8.92908V13.6992M9.34031 13.6992C9.34031 11.8711 7.21836 11.5169 5.66058 12.1116C5.6295 13.9275 7.79005 14.3801 9.34031 13.6992Z" stroke="#0B362F" strokeWidth="1.5" strokeLinecap="round" strokeLinejoin="round"/>
</svg>
