<svg width="20" height="20" viewBox="0 0 20 20" fill="none" xmlns="http://www.w3.org/2000/svg">
<path d="M1 4.75C1 2.982 1 2.098 1.55 1.55C2.097 1 2.981 1 4.75 1C6.519 1 7.402 1 7.95 1.55C8.5 2.098 8.5 2.982 8.5 4.75C8.5 6.518 8.5 7.402 7.95 7.95C7.402 8.5 6.518 8.5 4.75 8.5C2.982 8.5 2.098 8.5 1.55 7.95C1 7.403 1 6.519 1 4.75ZM1 15.257C1 13.489 1 12.605 1.55 12.057C2.098 11.507 2.982 11.507 4.75 11.507C6.518 11.507 7.402 11.507 7.95 12.057C8.5 12.605 8.5 13.489 8.5 15.257C8.5 17.025 8.5 17.909 7.95 18.457C7.402 19.007 6.518 19.007 4.75 19.007C2.982 19.007 2.098 19.007 1.55 18.457C1 17.91 1 17.025 1 15.257ZM11.5 4.75C11.5 2.982 11.5 2.098 12.05 1.55C12.598 1 13.482 1 15.25 1C17.018 1 17.902 1 18.45 1.55C19 2.098 19 2.982 19 4.75C19 6.518 19 7.402 18.45 7.95C17.902 8.5 17.018 8.5 15.25 8.5C13.482 8.5 12.598 8.5 12.05 7.95C11.5 7.402 11.5 6.518 11.5 4.75ZM11.5 15.257C11.5 13.489 11.5 12.605 12.05 12.057C12.598 11.507 13.482 11.507 15.25 11.507C17.018 11.507 17.902 11.507 18.45 12.057C19 12.605 19 13.489 19 15.257C19 17.025 19 17.909 18.45 18.457C17.902 19.007 17.018 19.007 15.25 19.007C13.482 19.007 12.598 19.007 12.05 18.457C11.5 17.909 11.5 17.025 11.5 15.257Z" stroke="#0B362F" strokeWidth="1.5" strokeLinecap="round" strokeLinejoin="round"/>
</svg>
