<svg width="24" height="25" viewBox="0 0 24 25" fill="currentColor" xmlns="http://www.w3.org/2000/svg">
<path d="M13.5284 3.04275L20.5676 8.47712C20.9636 8.78173 21.2 9.25104 21.2 9.75195V19.6832C21.2 20.6015 20.4344 21.3078 19.5404 21.3078H16.4V15.949C16.4 15.1261 16.0523 14.337 15.4334 13.7552C14.8146 13.1734 13.9752 12.8465 13.1 12.8465H11.9C11.0248 12.8465 10.1854 13.1734 9.56655 13.7552C8.94768 14.337 8.60001 15.1261 8.60001 15.949V21.3078H5.45961C4.56561 21.3078 3.80001 20.6015 3.80001 19.6832V9.75308C3.80001 9.25104 4.03641 8.78286 4.43241 8.47825L11.4716 3.04162C11.7604 2.81571 12.1243 2.69203 12.5 2.69203C12.8757 2.69203 13.2396 2.81684 13.5284 3.04275ZM19.5404 22.9989C21.4724 22.9989 23 21.4928 23 19.6821V9.75195C23.0014 9.25846 22.8864 8.77083 22.6633 8.32411C22.4403 7.8774 22.1147 7.48271 21.71 7.16845L14.672 1.73408C14.0612 1.25957 13.2936 1 12.5012 1C11.7088 1 10.9412 1.25957 10.3304 1.73408L3.29001 7.16958C2.8853 7.48384 2.55971 7.87852 2.33665 8.32524C2.1136 8.77195 1.99863 9.25959 2.00001 9.75308V19.6832C2.00001 21.4939 3.52761 23 5.45961 23L19.5404 22.9989Z" fill="currentColor"/>
</svg>
