<svg width="15" height="15" viewBox="0 0 15 15" fill="none" xmlns="http://www.w3.org/2000/svg">
<path d="M13.6389 4.61111C12.6336 2.31517 10.1556 1 7.48411 1C4.10483 1 1.32717 3.56533 1 6.85" stroke="#0B362F" strokeWidth="1.5" strokeLinecap="round" strokeLinejoin="round"/>
<path d="M10.742 4.89999H13.6092C13.6605 4.90009 13.7113 4.89007 13.7587 4.87051C13.8061 4.85096 13.8492 4.82225 13.8855 4.78602C13.9218 4.7498 13.9506 4.70677 13.9702 4.65941C13.9899 4.61204 14 4.56127 14 4.50999V1.64999M1.36108 10.3889C2.36642 12.6848 4.84436 14 7.51586 14C10.8951 14 13.6728 11.4347 14 8.14999" stroke="#0B362F" strokeWidth="1.5" strokeLinecap="round" strokeLinejoin="round"/>
<path d="M4.25794 10.1H1.39072C1.33945 10.0999 1.28865 10.1099 1.24125 10.1295C1.19385 10.149 1.15077 10.1778 1.11448 10.214C1.07819 10.2502 1.0494 10.2932 1.02976 10.3406C1.01011 10.388 1 10.4387 1 10.49V13.35" stroke="#0B362F" strokeWidth="1.5" strokeLinecap="round" strokeLinejoin="round"/>
</svg>
