<svg width="18" height="22" viewBox="0 0 18 22" fill="none" xmlns="http://www.w3.org/2000/svg">
<path d="M15.4 7.67277L14.504 17.0039C14.3685 18.4183 14.3013 19.125 13.992 19.6594C13.7207 20.1299 13.3217 20.5061 12.8453 20.7405C12.3045 21.0061 11.624 21.0061 10.2587 21.0061H7.74133C6.37707 21.0061 5.69547 21.0061 5.15467 20.7394C4.67792 20.5052 4.27852 20.1289 4.00693 19.6583C3.69973 19.125 3.63147 18.4183 3.49493 17.0039L2.6 7.67277M10.6 14.895V9.33944M7.4 14.895V9.33944M1 4.89499H5.92267M5.92267 4.89499L6.3344 1.9261C6.45387 1.3861 6.8848 1.0061 7.37973 1.0061H10.6203C11.1152 1.0061 11.5451 1.3861 11.6656 1.9261L12.0773 4.89499M5.92267 4.89499H12.0773M12.0773 4.89499H17" stroke="#360B0B" strokeWidth="1.5" strokeLinecap="round" strokeLinejoin="round"/>
</svg>
